<svg xmlns="http://www.w3.org/2000/svg" xmlns:xlink="http://www.w3.org/1999/xlink" fill="none" version="1.1" width="460.80078125" height="428.54443359375" viewBox="0 0 460.80078125 428.54443359375"><g><g><g><g><path d="M211.968,0C117.806,0,41.472,76.3336,41.472,170.496C41.472,216.959,60.4347,261.41,93.9737,293.566Q93.6579,303.133,89.9555,311.927Q86.0445,321.217,78.9099,328.37Q71.7738,335.525,62.5055,339.448Q52.9105,343.509,42.3936,343.509Q33.7466,343.509,25.8736,346.841Q18.2655,350.061,12.4026,355.939Q6.53846,361.819,3.32567,369.45Q0,377.35,0,386.027Q0,394.697,3.33504,402.599Q6.55531,410.228,12.4301,416.112Q18.3002,421.991,25.9077,425.213Q33.7746,428.544,42.3936,428.544Q51.0068,428.544,58.8756,425.203Q66.4811,421.974,72.3552,416.085Q78.2305,410.194,81.4525,402.565Q84.7872,394.67,84.7872,386.027Q84.7872,375.517,88.8479,365.903Q92.7679,356.621,99.9099,349.461Q107.053,342.298,116.313,338.367Q125.908,334.293,136.397,334.293Q145.016,334.293,152.883,330.961L152.889,330.958C153.319,330.776,153.798,330.763,154.237,330.921C154.718,331.093,155.199,331.264,155.681,331.433C159.523,332.777,160.349,337.814,156.604,339.407L156.508,339.448Q146.913,343.509,136.396,343.509Q127.749,343.509,119.876,346.841Q112.268,350.061,106.405,355.939Q100.541,361.819,97.3284,369.45Q94.0027,377.35,94.0027,386.027Q94.0027,394.697,97.3377,402.599Q100.558,410.228,106.433,416.112Q112.303,421.991,119.91,425.213Q127.777,428.544,136.396,428.544Q145.01,428.544,152.878,425.203Q160.484,421.974,166.358,416.085Q172.233,410.194,175.455,402.565Q178.79,394.67,178.79,386.027Q178.79,375.517,182.851,365.903Q186.771,356.621,193.913,349.461Q196.611,346.755,199.612,344.51C203.141,341.87,207.494,340.99,211.901,340.992L248.9,340.992C253.324,340.99,257.747,341.905,261.285,344.561Q264.231,346.772,266.884,349.429Q274.029,356.585,277.949,365.87Q282.009,375.49,282.009,386.027Q282.009,394.698,285.344,402.599Q288.564,410.228,294.439,416.112Q300.309,421.991,307.917,425.213Q315.784,428.544,324.403,428.544Q333.022,428.544,340.889,425.213Q348.496,421.991,354.366,416.112Q360.241,410.228,363.461,402.599Q366.796,394.697,366.796,386.027Q366.796,377.378,363.471,369.484Q360.256,361.854,354.392,355.967Q348.525,350.078,340.919,346.85Q333.044,343.509,324.403,343.509Q313.887,343.509,304.287,339.435Q304.239,339.415,304.191,339.395C300.456,337.801,301.17,332.811,305.004,331.473C305.529,331.29,306.053,331.104,306.575,330.916C307.015,330.758,307.481,330.776,307.911,330.958L307.918,330.961Q315.785,334.293,324.404,334.293Q334.894,334.293,344.484,338.354Q353.748,342.277,360.889,349.429Q368.034,356.585,371.953,365.87Q376.014,375.49,376.014,386.027Q376.014,394.697,379.349,402.599Q382.569,410.228,388.444,416.112Q394.314,421.991,401.921,425.213Q409.788,428.544,418.407,428.544Q427.026,428.544,434.893,425.213Q442.501,421.991,448.371,416.112Q454.245,410.228,457.466,402.599Q460.801,394.697,460.801,386.027Q460.801,377.378,457.475,369.484Q454.261,361.854,448.396,355.967Q442.529,350.078,434.923,346.85Q427.048,343.509,418.407,343.509Q407.892,343.509,398.291,339.435Q389.027,335.504,381.889,328.339Q374.757,321.18,370.846,311.895Q367.144,303.107,366.827,293.565C400.365,261.409,419.328,216.959,419.328,170.496C419.328,76.3336,342.994,0,248.832,0L211.968,0ZM248.831,241.92Q248.831,242.429,248.806,242.937Q248.781,243.446,248.732,243.952Q248.682,244.459,248.607,244.963Q248.532,245.466,248.433,245.965Q248.334,246.465,248.21,246.958Q248.086,247.452,247.938,247.939Q247.791,248.426,247.619,248.906Q247.448,249.385,247.253,249.855Q247.058,250.326,246.84,250.786Q246.623,251.246,246.383,251.695Q246.143,252.144,245.881,252.58Q245.619,253.017,245.337,253.44Q245.054,253.863,244.751,254.272Q244.447,254.681,244.124,255.075Q243.802,255.468,243.46,255.845Q243.118,256.223,242.758,256.583Q242.398,256.942,242.021,257.284Q241.644,257.626,241.25,257.949Q240.857,258.272,240.448,258.575Q240.039,258.878,239.616,259.161Q239.192,259.444,238.756,259.706Q238.319,259.967,237.87,260.207Q237.421,260.447,236.961,260.665Q236.501,260.883,236.031,261.077Q235.56,261.272,235.081,261.444Q234.602,261.615,234.115,261.763Q233.628,261.911,233.134,262.034Q232.64,262.158,232.141,262.258Q231.641,262.357,231.138,262.432Q230.634,262.506,230.128,262.556Q229.621,262.606,229.113,262.631Q228.604,262.656,228.095,262.656Q227.586,262.656,227.078,262.631Q226.569,262.606,226.063,262.556Q225.556,262.506,225.053,262.432Q224.549,262.357,224.05,262.257Q223.551,262.158,223.057,262.034Q222.563,261.911,222.076,261.763Q221.589,261.615,221.11,261.444Q220.63,261.272,220.16,261.077Q219.69,260.883,219.23,260.665Q218.769,260.447,218.32,260.207Q217.872,259.967,217.435,259.706Q216.998,259.444,216.575,259.161Q216.152,258.878,215.743,258.575Q215.334,258.272,214.941,257.949Q214.547,257.626,214.17,257.284Q213.793,256.942,213.433,256.582Q213.073,256.223,212.731,255.845Q212.389,255.468,212.066,255.075Q211.743,254.681,211.44,254.272Q211.137,253.863,210.854,253.44Q210.571,253.017,210.31,252.58Q210.048,252.144,209.808,251.695Q209.568,251.246,209.35,250.786Q209.133,250.326,208.938,249.855Q208.743,249.385,208.572,248.906Q208.4,248.426,208.252,247.939Q208.104,247.452,207.981,246.958Q207.857,246.465,207.758,245.965Q207.658,245.466,207.584,244.963Q207.509,244.459,207.459,243.952Q207.409,243.446,207.384,242.937Q207.359,242.429,207.359,241.92Q207.359,241.411,207.384,240.902Q207.409,240.394,207.459,239.887Q207.509,239.381,207.584,238.877Q207.658,238.374,207.758,237.875Q207.857,237.375,207.981,236.881Q208.104,236.388,208.252,235.901Q208.4,235.413,208.572,234.934Q208.743,234.455,208.938,233.985Q209.133,233.514,209.35,233.054Q209.568,232.594,209.808,232.145Q210.048,231.696,210.31,231.26Q210.571,230.823,210.854,230.4Q211.137,229.976,211.44,229.568Q211.743,229.159,212.066,228.765Q212.389,228.372,212.731,227.995Q213.073,227.617,213.433,227.257Q213.793,226.897,214.17,226.556Q214.547,226.214,214.941,225.891Q215.334,225.568,215.743,225.265Q216.152,224.961,216.575,224.679Q216.998,224.396,217.435,224.134Q217.872,223.872,218.32,223.632Q218.769,223.392,219.23,223.175Q219.69,222.957,220.16,222.762Q220.63,222.568,221.11,222.396Q221.589,222.225,222.076,222.077Q222.563,221.929,223.057,221.805Q223.551,221.682,224.05,221.582Q224.549,221.483,225.053,221.408Q225.556,221.334,226.063,221.284Q226.569,221.234,227.078,221.209Q227.586,221.184,228.095,221.184Q228.604,221.184,229.113,221.209Q229.621,221.234,230.128,221.284Q230.634,221.334,231.138,221.408Q231.641,221.483,232.141,221.582Q232.64,221.682,233.134,221.805Q233.628,221.929,234.115,222.077Q234.602,222.225,235.081,222.396Q235.56,222.568,236.031,222.762Q236.501,222.957,236.961,223.175Q237.421,223.392,237.87,223.632Q238.319,223.872,238.756,224.134Q239.192,224.396,239.616,224.679Q240.039,224.961,240.448,225.265Q240.857,225.568,241.25,225.891Q241.644,226.214,242.021,226.556Q242.398,226.897,242.758,227.257Q243.118,227.617,243.46,227.995Q243.802,228.372,244.124,228.765Q244.447,229.159,244.751,229.568Q245.054,229.976,245.337,230.4Q245.619,230.823,245.881,231.259Q246.143,231.696,246.383,232.145Q246.623,232.594,246.84,233.054Q247.058,233.514,247.253,233.985Q247.448,234.455,247.619,234.934Q247.791,235.413,247.938,235.901Q248.086,236.388,248.21,236.881Q248.334,237.375,248.433,237.875Q248.532,238.374,248.607,238.877Q248.682,239.381,248.732,239.887Q248.781,240.394,248.806,240.902Q248.831,241.411,248.831,241.92ZM324.863,262.656Q325.372,262.656,325.88,262.631Q326.389,262.606,326.895,262.556Q327.402,262.506,327.906,262.432Q328.409,262.357,328.908,262.257Q329.408,262.158,329.901,262.034Q330.395,261.911,330.882,261.763Q331.369,261.615,331.849,261.444Q332.328,261.272,332.798,261.077Q333.269,260.883,333.729,260.665Q334.189,260.447,334.638,260.207Q335.087,259.967,335.523,259.706Q335.96,259.444,336.383,259.161Q336.806,258.878,337.215,258.575Q337.624,258.272,338.018,257.949Q338.411,257.626,338.788,257.284Q339.166,256.942,339.526,256.582Q339.885,256.223,340.227,255.845Q340.569,255.468,340.892,255.075Q341.215,254.681,341.518,254.272Q341.821,253.863,342.104,253.44Q342.387,253.017,342.649,252.58Q342.91,252.144,343.15,251.695Q343.39,251.246,343.608,250.786Q343.826,250.326,344.02,249.855Q344.215,249.385,344.387,248.906Q344.558,248.426,344.706,247.939Q344.854,247.452,344.977,246.958Q345.101,246.465,345.201,245.965Q345.3,245.466,345.375,244.963Q345.449,244.459,345.499,243.952Q345.549,243.446,345.574,242.937Q345.599,242.429,345.599,241.92Q345.599,241.411,345.574,240.902Q345.549,240.394,345.499,239.887Q345.449,239.381,345.375,238.877Q345.3,238.374,345.201,237.875Q345.101,237.375,344.978,236.881Q344.854,236.388,344.706,235.901Q344.558,235.413,344.387,234.934Q344.215,234.455,344.02,233.985Q343.826,233.514,343.608,233.054Q343.39,232.594,343.15,232.145Q342.91,231.696,342.649,231.26Q342.387,230.823,342.104,230.4Q341.821,229.976,341.518,229.568Q341.215,229.159,340.892,228.765Q340.569,228.372,340.227,227.995Q339.885,227.617,339.525,227.257Q339.166,226.897,338.788,226.556Q338.411,226.214,338.018,225.891Q337.624,225.568,337.215,225.265Q336.806,224.961,336.383,224.679Q335.96,224.396,335.523,224.134Q335.087,223.872,334.638,223.632Q334.189,223.392,333.729,223.175Q333.269,222.957,332.798,222.762Q332.328,222.568,331.849,222.396Q331.369,222.225,330.882,222.077Q330.395,221.929,329.901,221.805Q329.408,221.682,328.908,221.582Q328.409,221.483,327.906,221.408Q327.402,221.334,326.895,221.284Q326.389,221.234,325.88,221.209Q325.372,221.184,324.863,221.184Q324.354,221.184,323.845,221.209Q323.337,221.234,322.831,221.284Q322.324,221.334,321.82,221.408Q321.317,221.483,320.818,221.582Q320.318,221.682,319.824,221.805Q319.331,221.929,318.844,222.077Q318.356,222.225,317.877,222.396Q317.398,222.568,316.928,222.762Q316.457,222.957,315.997,223.175Q315.537,223.392,315.088,223.632Q314.639,223.872,314.202,224.134Q313.766,224.396,313.343,224.679Q312.919,224.961,312.51,225.265Q312.102,225.568,311.708,225.891Q311.315,226.214,310.937,226.556Q310.56,226.897,310.2,227.257Q309.84,227.617,309.499,227.995Q309.157,228.372,308.834,228.765Q308.511,229.159,308.208,229.568Q307.904,229.976,307.622,230.4Q307.339,230.823,307.077,231.259Q306.815,231.696,306.575,232.145Q306.335,232.594,306.118,233.054Q305.9,233.514,305.705,233.985Q305.511,234.455,305.339,234.934Q305.168,235.413,305.02,235.901Q304.872,236.388,304.748,236.881Q304.625,237.375,304.525,237.875Q304.426,238.374,304.351,238.877Q304.277,239.381,304.227,239.887Q304.177,240.394,304.152,240.902Q304.127,241.411,304.127,241.92Q304.127,242.429,304.152,242.937Q304.177,243.446,304.227,243.952Q304.277,244.459,304.351,244.963Q304.426,245.466,304.525,245.965Q304.625,246.465,304.748,246.958Q304.872,247.452,305.02,247.939Q305.168,248.426,305.339,248.906Q305.511,249.385,305.705,249.855Q305.9,250.326,306.118,250.786Q306.335,251.246,306.575,251.695Q306.815,252.144,307.077,252.58Q307.339,253.017,307.622,253.44Q307.904,253.863,308.208,254.272Q308.511,254.681,308.834,255.075Q309.157,255.468,309.499,255.845Q309.84,256.223,310.2,256.583Q310.56,256.942,310.937,257.284Q311.315,257.626,311.708,257.949Q312.102,258.272,312.51,258.575Q312.919,258.878,313.343,259.161Q313.766,259.444,314.202,259.706Q314.639,259.967,315.088,260.207Q315.537,260.447,315.997,260.665Q316.457,260.883,316.928,261.077Q317.398,261.272,317.877,261.444Q318.356,261.615,318.844,261.763Q319.331,261.911,319.824,262.034Q320.318,262.158,320.818,262.258Q321.317,262.357,321.82,262.432Q322.324,262.506,322.83,262.556Q323.337,262.606,323.845,262.631Q324.354,262.656,324.863,262.656ZM272.793,386.026Q272.793,377.914,269.815,370.372Q266.581,362.184,260.372,355.957Q254.163,349.732,246,346.492Q238.483,343.509,230.399,343.509Q222.315,343.509,214.798,346.492Q206.635,349.732,200.427,355.957Q194.217,362.184,190.983,370.372Q188.005,377.914,188.005,386.026Q188.005,394.138,190.983,401.681Q194.217,409.869,200.427,416.095Q206.635,422.32,214.798,425.56Q222.315,428.544,230.399,428.544Q238.483,428.544,246,425.56Q254.163,422.32,260.372,416.095Q266.581,409.869,269.815,401.681Q272.793,394.138,272.793,386.026Z" fill-rule="evenodd" fill="#000000" fill-opacity="1"/></g></g></g></g></svg>