<svg xmlns="http://www.w3.org/2000/svg" xmlns:xlink="http://www.w3.org/1999/xlink" fill="none" version="1.1" width="1454.115234375" height="335.9881591796875" viewBox="0 0 1454.115234375 335.9881591796875"><g><g><path d="M335.992,33.5983C335.992,52.1334,320.928,67.1967,302.393,67.1967L167.996,67.1967C149.46,67.1967,134.397,82.2039,134.397,100.795C134.397,119.386,149.46,134.393,167.996,134.393C186.531,134.393,201.595,149.401,201.595,167.992L201.595,302.385C201.595,320.92,186.531,335.983,167.996,335.983C149.46,335.983,134.397,320.92,134.397,302.385L134.397,167.992C134.397,149.401,119.333,134.393,100.798,134.393C82.262,134.393,67.1983,119.33,67.1983,100.795C67.1983,82.2599,52.1347,67.1967,33.5992,67.1967C15.0636,67.1967,0,52.1334,0,33.5983C0,15.0632,15.0636,0,33.5992,0L302.393,0C320.928,0,335.992,15.0073,335.992,33.5983Z" fill="#00DEB5" fill-opacity="1"/></g><g><path d="M1420.51553515625,67.1967C1401.98053515625,67.1967,1386.9165351562501,52.1334,1386.9165351562501,33.5983C1386.9165351562501,15.0632,1371.85353515625,0,1353.31753515625,0L1218.92153515625,0C1200.38553515625,0,1185.32183515625,15.0073,1185.32183515625,33.5983C1185.32183515625,52.1894,1170.25823515625,67.1967,1151.72273515625,67.1967C1133.18713515625,67.1967,1118.12353515625,82.2039,1118.12353515625,100.795L1118.12353515625,235.188C1118.12353515625,253.723,1133.18713515625,268.787,1151.72273515625,268.787C1170.25823515625,268.787,1185.32183515625,283.794,1185.32183515625,302.385C1185.32183515625,320.976,1200.38553515625,335.983,1218.92153515625,335.983L1353.31753515625,335.983C1371.85353515625,335.983,1386.9165351562501,320.92,1386.9165351562501,302.385C1386.9165351562501,283.85,1401.98053515625,268.787,1420.51553515625,268.787C1439.0515351562499,268.787,1454.11553515625,253.723,1454.11553515625,235.188L1454.11553515625,100.795C1454.11553515625,82.2039,1439.0515351562499,67.1967,1420.51553515625,67.1967ZM1386.9165351562501,235.188C1386.9165351562501,253.723,1371.85353515625,268.787,1353.31753515625,268.787L1218.92153515625,268.787C1200.38553515625,268.787,1185.32183515625,253.723,1185.32183515625,235.188L1185.32183515625,100.795C1185.32183515625,82.2039,1200.38553515625,67.1967,1218.92153515625,67.1967L1353.31753515625,67.1967C1371.85353515625,67.1967,1386.9165351562501,82.2039,1386.9165351562501,100.795L1386.9165351562501,235.188Z" fill="#00DEB5" fill-opacity="1"/></g><g><path d="M1063.0216630859375,302.385C1063.0216630859375,320.92,1048.0136630859374,335.983,1029.4226630859375,335.983C1010.8306630859374,335.983,995.8226630859375,320.92,995.8226630859375,302.385C995.8226630859375,283.85,980.8156630859376,268.787,962.2236630859375,268.787L895.0256630859375,268.787C876.4896630859375,268.787,861.4266630859374,253.723,861.4266630859374,235.188C861.4266630859374,216.653,846.4186630859375,201.59,827.8276630859375,201.59C809.2355630859375,201.59,794.2279630859375,216.597,794.2279630859375,235.188L794.2279630859375,302.385C794.2279630859375,320.92,779.2204630859375,335.983,760.6288630859375,335.983C742.0372630859375,335.983,727.0296630859375,320.92,727.0296630859375,302.385L727.0296630859375,33.5983C727.0296630859375,15.0073,742.0932630859375,0,760.6288630859375,0C779.1643630859375,0,794.2279630859375,15.0073,794.2279630859375,33.5983L794.2279630859375,100.795C794.2279630859375,119.33,809.2916630859374,134.393,827.8276630859375,134.393C846.3626630859375,134.393,861.4266630859374,119.33,861.4266630859374,100.795C861.4266630859374,82.2599,876.4896630859375,67.1967,895.0256630859375,67.1967L962.2236630859375,67.1967C980.8156630859376,67.1967,995.8226630859375,52.1334,995.8226630859375,33.5983C995.8226630859375,15.0632,1010.8866630859375,0,1029.4226630859375,0C1047.9576630859374,0,1063.0216630859375,15.0073,1063.0216630859375,33.5983C1063.0216630859375,52.1894,1048.0136630859374,67.1967,1029.4226630859375,67.1967C1010.8306630859374,67.1967,995.8226630859375,82.2039,995.8226630859375,100.795C995.8226630859375,119.386,980.8156630859376,134.393,962.2236630859375,134.393L895.0256630859375,134.393C876.4896630859375,134.393,861.4266630859374,149.401,861.4266630859374,167.992C861.4266630859374,186.583,876.4896630859375,201.59,895.0256630859375,201.59L962.2236630859375,201.59C980.8156630859376,201.59,995.8226630859375,216.597,995.8226630859375,235.188C995.8226630859375,253.779,1010.8866630859375,268.787,1029.4226630859375,268.787C1047.9576630859374,268.787,1063.0216630859375,283.794,1063.0216630859375,302.385Z" fill="#00DEB5" fill-opacity="1"/></g><g><path d="M638.3846076660157,134.39320346253365C619.8486076660156,134.39320346253365,604.7846076660156,119.33020346253365,604.7846076660156,100.79520346253365C604.7846076660156,82.25990346253366,589.7216076660156,67.19670346253365,571.1856076660156,67.19670346253365C552.6506076660156,67.19670346253365,537.5866076660157,52.13340346253365,537.5866076660157,33.59830346253365C537.5866076660157,11.759403462533653,516.7556076660156,-5.151756537466348,493.9636076660156,1.4559134625336527C479.57160766601567,5.655703462533653,470.7806076660156,19.431003462533653,470.3886076660156,34.43830346253365C469.94060766601564,52.58140346253365,455.0446076660156,67.19670346253365,436.7896076660156,67.19670346253365C418.53360766601566,67.19670346253365,403.18990766601564,82.20390346253366,403.18990766601564,100.79520346253365C403.18990766601564,119.38620346253366,387.7903076660156,134.72920346253366,369.0308076660156,134.39320346253365C350.27120766601564,134.05720346253366,335.9916076660156,149.68020346253365,335.9916076660156,167.99120346253366L335.9916076660156,301.20920346253365C335.9916076660156,318.28820346253366,348.2553076660156,333.51920346253365,365.1669076660156,335.7032034625337C385.6624076660156,338.3352034625336,403.18990766601564,322.3762034625337,403.18990766601564,302.38520346253364C403.18990766601564,283.85020346253367,418.2536076660156,268.78620346253365,436.7896076660156,268.78620346253365L571.1856076660156,268.78620346253365C589.4416076660157,268.78620346253365,604.3366076660157,283.34620346253365,604.7846076660156,301.54520346253366C605.1206076660156,316.55220346253367,613.9686076660156,330.32720346253365,628.4166076660156,334.52720346253363C651.2076076660156,341.13520346253364,671.9836076660156,324.16820346253365,671.9836076660156,302.38520346253364L671.9836076660156,167.99120346253366C671.9836076660156,149.40020346253365,656.9196076660156,134.39320346253365,638.3846076660157,134.39320346253365ZM571.1856076660156,201.59020346253365L436.7896076660156,201.59020346253365C418.2536076660156,201.59020346253365,403.18990766601564,186.52720346253366,403.18990766601564,167.99120346253366C403.18990766601564,149.45620346253367,418.2536076660156,134.39320346253365,436.7896076660156,134.39320346253365C455.3246076660156,134.39320346253365,470.3886076660156,119.33020346253365,470.3886076660156,100.79520346253365C470.3886076660156,82.25990346253366,485.45160766601566,67.19670346253365,503.9876076660156,67.19670346253365C522.5226076660156,67.19670346253365,537.5866076660157,82.20390346253366,537.5866076660157,100.79520346253365C537.5866076660157,119.38620346253366,552.6506076660156,134.39320346253365,571.1856076660156,134.39320346253365C589.7216076660156,134.39320346253365,604.7846076660156,149.40020346253365,604.7846076660156,167.99120346253366C604.7846076660156,186.58220346253364,589.7216076660156,201.59020346253365,571.1856076660156,201.59020346253365Z" fill="#00DEB5" fill-opacity="1"/></g></g></svg>