<svg xmlns="http://www.w3.org/2000/svg" xmlns:xlink="http://www.w3.org/1999/xlink" fill="none" version="1.1" width="460.80078125" height="428.54443359375" viewBox="0 0 460.80078125 428.54443359375"><g><g><g><g><path d="M211.968,0C117.806,0,41.472,76.3336,41.472,170.496C41.472,216.959,60.4347,261.41,93.9737,293.566Q93.6579,303.133,89.9555,311.927Q86.0445,321.217,78.9099,328.37Q71.7738,335.525,62.5055,339.448Q52.9105,343.509,42.3936,343.509Q33.7466,343.509,25.8736,346.841Q18.2655,350.061,12.4026,355.939Q6.53846,361.819,3.32567,369.45Q0,377.35,0,386.027Q0,394.697,3.33504,402.599Q6.55531,410.228,12.4301,416.112Q18.3002,421.991,25.9077,425.213Q33.7746,428.544,42.3936,428.544Q51.0068,428.544,58.8756,425.203Q66.4811,421.974,72.3552,416.085Q78.2305,410.194,81.4525,402.565Q84.7872,394.67,84.7872,386.027Q84.7872,375.517,88.8479,365.903Q92.7679,356.621,99.9099,349.461Q107.053,342.298,116.313,338.367Q125.908,334.293,136.397,334.293Q145.016,334.293,152.883,330.961L152.889,330.958C153.319,330.776,153.798,330.763,154.237,330.921C154.718,331.093,155.199,331.264,155.681,331.433C159.523,332.777,160.349,337.814,156.604,339.407L156.508,339.448Q146.913,343.509,136.396,343.509Q127.749,343.509,119.876,346.841Q112.268,350.061,106.405,355.939Q100.541,361.819,97.3284,369.45Q94.0027,377.35,94.0027,386.027Q94.0027,394.697,97.3377,402.599Q100.558,410.228,106.433,416.112Q112.303,421.991,119.91,425.213Q127.777,428.544,136.396,428.544Q145.01,428.544,152.878,425.203Q160.484,421.974,166.358,416.085Q172.233,410.194,175.455,402.565Q178.79,394.67,178.79,386.027Q178.79,375.517,182.851,365.903Q186.771,356.621,193.913,349.461Q196.611,346.755,199.612,344.51C203.141,341.87,207.494,340.99,211.901,340.992L248.9,340.992C253.324,340.99,257.747,341.905,261.285,344.561Q264.231,346.772,266.884,349.429Q274.029,356.585,277.949,365.87Q282.009,375.49,282.009,386.027Q282.009,394.698,285.344,402.599Q288.564,410.228,294.439,416.112Q300.309,421.991,307.917,425.213Q315.784,428.544,324.403,428.544Q333.022,428.544,340.889,425.213Q348.496,421.991,354.366,416.112Q360.241,410.228,363.461,402.599Q366.796,394.697,366.796,386.027Q366.796,377.378,363.471,369.484Q360.256,361.854,354.392,355.967Q348.525,350.078,340.919,346.85Q333.044,343.509,324.403,343.509Q313.887,343.509,304.287,339.435Q304.239,339.415,304.191,339.395C300.456,337.801,301.17,332.811,305.004,331.473C305.529,331.29,306.053,331.104,306.575,330.916C307.015,330.758,307.481,330.776,307.911,330.958L307.918,330.961Q315.785,334.293,324.404,334.293Q334.894,334.293,344.484,338.354Q353.748,342.277,360.889,349.429Q368.034,356.585,371.953,365.87Q376.014,375.49,376.014,386.027Q376.014,394.697,379.349,402.599Q382.569,410.228,388.444,416.112Q394.314,421.991,401.921,425.213Q409.788,428.544,418.407,428.544Q427.026,428.544,434.893,425.213Q442.501,421.991,448.371,416.112Q454.245,410.228,457.466,402.599Q460.801,394.697,460.801,386.027Q460.801,377.378,457.475,369.484Q454.261,361.854,448.396,355.967Q442.529,350.078,434.923,346.85Q427.048,343.509,418.407,343.509Q407.892,343.509,398.291,339.435Q389.027,335.504,381.889,328.339Q374.757,321.18,370.846,311.895Q367.144,303.107,366.827,293.565C400.365,261.409,419.328,216.959,419.328,170.496C419.328,76.3336,342.994,0,248.832,0L211.968,0ZM248.832,241.92Q248.832,242.429,248.807,242.937Q248.782,243.446,248.732,243.952Q248.682,244.459,248.607,244.963Q248.533,245.466,248.433,245.965Q248.334,246.465,248.21,246.958Q248.087,247.452,247.939,247.939Q247.791,248.426,247.62,248.906Q247.448,249.385,247.253,249.855Q247.059,250.326,246.841,250.786Q246.623,251.246,246.383,251.695Q246.143,252.144,245.882,252.58Q245.62,253.017,245.337,253.44Q245.054,253.864,244.751,254.272Q244.448,254.681,244.125,255.075Q243.802,255.468,243.46,255.845Q243.118,256.223,242.758,256.583Q242.398,256.942,242.021,257.284Q241.644,257.626,241.251,257.949Q240.857,258.272,240.448,258.575Q240.039,258.878,239.616,259.161Q239.193,259.444,238.756,259.706Q238.32,259.967,237.871,260.207Q237.422,260.447,236.962,260.665Q236.501,260.883,236.031,261.078Q235.561,261.272,235.082,261.444Q234.602,261.615,234.115,261.763Q233.628,261.911,233.134,262.035Q232.64,262.158,232.141,262.258Q231.642,262.357,231.138,262.432Q230.635,262.506,230.128,262.556Q229.622,262.606,229.113,262.631Q228.605,262.656,228.096,262.656Q227.587,262.656,227.078,262.631Q226.57,262.606,226.063,262.556Q225.557,262.506,225.053,262.432Q224.55,262.357,224.05,262.258Q223.551,262.158,223.057,262.035Q222.564,261.911,222.077,261.763Q221.589,261.615,221.11,261.444Q220.631,261.272,220.161,261.078Q219.69,260.883,219.23,260.665Q218.77,260.447,218.321,260.207Q217.872,259.967,217.435,259.706Q216.999,259.444,216.576,259.161Q216.152,258.878,215.743,258.575Q215.335,258.272,214.941,257.949Q214.548,257.626,214.17,257.284Q213.793,256.942,213.433,256.583Q213.073,256.223,212.731,255.845Q212.39,255.468,212.067,255.075Q211.744,254.681,211.441,254.272Q211.137,253.864,210.855,253.44Q210.572,253.017,210.31,252.58Q210.048,252.144,209.808,251.695Q209.568,251.246,209.351,250.786Q209.133,250.326,208.938,249.855Q208.743,249.385,208.572,248.906Q208.4,248.426,208.253,247.939Q208.105,247.452,207.981,246.958Q207.858,246.465,207.758,245.965Q207.659,245.466,207.584,244.963Q207.51,244.459,207.46,243.952Q207.41,243.446,207.385,242.937Q207.36,242.429,207.36,241.92Q207.36,241.411,207.385,240.903Q207.41,240.394,207.46,239.887Q207.51,239.381,207.584,238.877Q207.659,238.374,207.758,237.875Q207.858,237.375,207.981,236.882Q208.105,236.388,208.253,235.901Q208.4,235.413,208.572,234.934Q208.743,234.455,208.938,233.985Q209.133,233.514,209.351,233.054Q209.568,232.594,209.808,232.145Q210.048,231.696,210.31,231.26Q210.572,230.823,210.854,230.4Q211.137,229.976,211.441,229.568Q211.744,229.159,212.067,228.765Q212.39,228.372,212.731,227.995Q213.073,227.617,213.433,227.257Q213.793,226.897,214.17,226.556Q214.548,226.214,214.941,225.891Q215.335,225.568,215.743,225.265Q216.152,224.961,216.576,224.679Q216.999,224.396,217.435,224.134Q217.872,223.872,218.321,223.632Q218.77,223.392,219.23,223.175Q219.69,222.957,220.161,222.762Q220.631,222.568,221.11,222.396Q221.589,222.225,222.077,222.077Q222.564,221.929,223.057,221.805Q223.551,221.682,224.05,221.582Q224.55,221.483,225.053,221.408Q225.557,221.334,226.063,221.284Q226.57,221.234,227.078,221.209Q227.587,221.184,228.096,221.184Q228.605,221.184,229.113,221.209Q229.622,221.234,230.128,221.284Q230.635,221.334,231.138,221.408Q231.642,221.483,232.141,221.582Q232.64,221.682,233.134,221.805Q233.628,221.929,234.115,222.077Q234.602,222.225,235.082,222.396Q235.561,222.568,236.031,222.762Q236.501,222.957,236.962,223.175Q237.422,223.392,237.871,223.632Q238.32,223.872,238.756,224.134Q239.193,224.396,239.616,224.679Q240.039,224.961,240.448,225.265Q240.857,225.568,241.251,225.891Q241.644,226.214,242.021,226.556Q242.398,226.897,242.758,227.257Q243.118,227.617,243.46,227.995Q243.802,228.372,244.125,228.765Q244.448,229.159,244.751,229.568Q245.054,229.976,245.337,230.4Q245.62,230.823,245.882,231.26Q246.143,231.696,246.383,232.145Q246.623,232.594,246.841,233.054Q247.059,233.514,247.253,233.985Q247.448,234.455,247.62,234.934Q247.791,235.413,247.939,235.901Q248.087,236.388,248.21,236.882Q248.334,237.375,248.433,237.875Q248.533,238.374,248.607,238.877Q248.682,239.381,248.732,239.887Q248.782,240.394,248.807,240.903Q248.832,241.411,248.832,241.92ZM324.863,262.656Q325.372,262.656,325.881,262.631Q326.389,262.606,326.896,262.556Q327.402,262.506,327.906,262.432Q328.41,262.357,328.909,262.258Q329.408,262.158,329.902,262.035Q330.396,261.911,330.883,261.763Q331.37,261.615,331.849,261.444Q332.328,261.272,332.799,261.078Q333.269,260.883,333.729,260.665Q334.189,260.447,334.638,260.207Q335.087,259.967,335.524,259.706Q335.96,259.444,336.384,259.161Q336.807,258.878,337.216,258.575Q337.625,258.272,338.018,257.949Q338.412,257.626,338.789,257.284Q339.166,256.942,339.526,256.583Q339.886,256.223,340.228,255.845Q340.57,255.468,340.893,255.075Q341.215,254.681,341.519,254.272Q341.822,253.864,342.105,253.44Q342.388,253.017,342.649,252.58Q342.911,252.144,343.151,251.695Q343.391,251.246,343.608,250.786Q343.826,250.326,344.021,249.855Q344.216,249.385,344.387,248.906Q344.559,248.426,344.706,247.939Q344.854,247.452,344.978,246.958Q345.102,246.465,345.201,245.965Q345.3,245.466,345.375,244.963Q345.45,244.459,345.5,243.952Q345.549,243.446,345.574,242.937Q345.599,242.429,345.599,241.92Q345.599,241.411,345.574,240.903Q345.549,240.394,345.5,239.887Q345.45,239.381,345.375,238.877Q345.3,238.374,345.201,237.875Q345.102,237.375,344.978,236.882Q344.854,236.388,344.707,235.901Q344.559,235.413,344.387,234.934Q344.216,234.455,344.021,233.985Q343.826,233.514,343.608,233.054Q343.391,232.594,343.151,232.145Q342.911,231.696,342.649,231.26Q342.388,230.823,342.105,230.4Q341.822,229.976,341.519,229.568Q341.215,229.159,340.893,228.765Q340.57,228.372,340.228,227.995Q339.886,227.617,339.526,227.257Q339.166,226.897,338.789,226.556Q338.412,226.214,338.018,225.891Q337.625,225.568,337.216,225.265Q336.807,224.961,336.384,224.679Q335.96,224.396,335.524,224.134Q335.087,223.872,334.638,223.632Q334.189,223.392,333.729,223.175Q333.269,222.957,332.799,222.762Q332.328,222.568,331.849,222.396Q331.37,222.225,330.883,222.077Q330.396,221.929,329.902,221.805Q329.408,221.682,328.909,221.582Q328.41,221.483,327.906,221.408Q327.402,221.334,326.896,221.284Q326.389,221.234,325.881,221.209Q325.372,221.184,324.863,221.184Q324.354,221.184,323.846,221.209Q323.338,221.234,322.831,221.284Q322.324,221.334,321.821,221.408Q321.317,221.483,320.818,221.582Q320.319,221.682,319.825,221.805Q319.331,221.929,318.844,222.077Q318.357,222.225,317.878,222.396Q317.398,222.568,316.928,222.762Q316.458,222.957,315.998,223.175Q315.537,223.392,315.089,223.632Q314.64,223.872,314.203,224.134Q313.766,224.396,313.343,224.679Q312.92,224.961,312.511,225.265Q312.102,225.568,311.709,225.891Q311.315,226.214,310.938,226.556Q310.561,226.897,310.201,227.257Q309.841,227.617,309.499,227.995Q309.157,228.372,308.834,228.765Q308.511,229.159,308.208,229.568Q307.905,229.976,307.622,230.4Q307.339,230.823,307.078,231.26Q306.816,231.696,306.576,232.145Q306.336,232.594,306.118,233.054Q305.901,233.514,305.706,233.985Q305.511,234.455,305.34,234.934Q305.168,235.413,305.02,235.901Q304.872,236.388,304.749,236.882Q304.625,237.375,304.526,237.875Q304.427,238.374,304.352,238.877Q304.277,239.381,304.227,239.887Q304.177,240.394,304.152,240.903Q304.127,241.411,304.127,241.92Q304.127,242.429,304.152,242.937Q304.177,243.446,304.227,243.952Q304.277,244.459,304.352,244.963Q304.427,245.466,304.526,245.965Q304.625,246.465,304.749,246.958Q304.872,247.452,305.02,247.939Q305.168,248.426,305.34,248.906Q305.511,249.385,305.706,249.855Q305.901,250.326,306.118,250.786Q306.336,251.246,306.576,251.695Q306.816,252.144,307.078,252.58Q307.339,253.017,307.622,253.44Q307.905,253.864,308.208,254.272Q308.511,254.681,308.834,255.075Q309.157,255.468,309.499,255.845Q309.841,256.223,310.201,256.583Q310.561,256.942,310.938,257.284Q311.315,257.626,311.709,257.949Q312.102,258.272,312.511,258.575Q312.92,258.878,313.343,259.161Q313.766,259.444,314.203,259.706Q314.64,259.967,315.089,260.207Q315.537,260.447,315.998,260.665Q316.458,260.883,316.928,261.078Q317.398,261.272,317.878,261.444Q318.357,261.615,318.844,261.763Q319.331,261.911,319.825,262.035Q320.319,262.158,320.818,262.258Q321.317,262.357,321.821,262.432Q322.324,262.506,322.831,262.556Q323.338,262.606,323.846,262.631Q324.354,262.656,324.863,262.656ZM272.793,386.026Q272.793,377.914,269.815,370.372Q266.581,362.184,260.372,355.957Q254.163,349.732,246,346.492Q238.483,343.509,230.399,343.509Q222.315,343.509,214.798,346.492Q206.635,349.732,200.427,355.957Q194.217,362.184,190.983,370.372Q188.005,377.914,188.005,386.026Q188.005,394.138,190.983,401.681Q194.217,409.869,200.427,416.095Q206.635,422.32,214.798,425.56Q222.315,428.544,230.399,428.544Q238.483,428.544,246,425.56Q254.163,422.32,260.372,416.095Q266.581,409.869,269.815,401.681Q272.793,394.138,272.793,386.026Z" fill-rule="evenodd" fill="#FFFFFF" fill-opacity="1"/></g></g></g></g></svg>