<svg xmlns="http://www.w3.org/2000/svg" xmlns:xlink="http://www.w3.org/1999/xlink" fill="none" version="1.1" width="2125.33203125" height="476.1600036621094" viewBox="0 0 2125.33203125 476.1600036621094"><g><g><g><path d="M1007.2087358398437,130.878329296875C1007.2087358398437,149.413429296875,992.1447358398437,164.47672929687502,973.6097358398438,164.47672929687502L839.2127358398437,164.47672929687502C820.6767358398438,164.47672929687502,805.6137358398437,179.483929296875,805.6137358398437,198.07502929687502C805.6137358398437,216.666029296875,820.6767358398438,231.673029296875,839.2127358398437,231.673029296875C857.7477358398437,231.673029296875,872.8117358398438,246.681029296875,872.8117358398438,265.27202929687496L872.8117358398438,399.665029296875C872.8117358398438,418.200029296875,857.7477358398437,433.263029296875,839.2127358398437,433.263029296875C820.6767358398438,433.263029296875,805.6137358398437,418.200029296875,805.6137358398437,399.665029296875L805.6137358398437,265.27202929687496C805.6137358398437,246.681029296875,790.5497358398437,231.673029296875,772.0147358398438,231.673029296875C753.4787358398437,231.673029296875,738.4150358398438,216.61002929687498,738.4150358398438,198.07502929687502C738.4150358398438,179.53992929687502,723.3514358398437,164.47672929687502,704.8159358398437,164.47672929687502C686.2803358398437,164.47672929687502,671.2167358398438,149.413429296875,671.2167358398438,130.878329296875C671.2167358398438,112.343229296875,686.2803358398437,97.280029296875,704.8159358398437,97.280029296875L973.6097358398438,97.280029296875C992.1447358398437,97.280029296875,1007.2087358398437,112.287329296875,1007.2087358398437,130.878329296875Z" fill="#FFFFFF" fill-opacity="1"/></g><g><path d="M2091.7322709960936,164.47672929687502C2073.1972709960937,164.47672929687502,2058.133270996094,149.413429296875,2058.133270996094,130.878329296875C2058.133270996094,112.343229296875,2043.0702709960938,97.280029296875,2024.5342709960937,97.280029296875L1890.1382709960938,97.280029296875C1871.6022709960937,97.280029296875,1856.5385709960938,112.287329296875,1856.5385709960938,130.878329296875C1856.5385709960938,149.469429296875,1841.4749709960938,164.47672929687502,1822.9394709960939,164.47672929687502C1804.4038709960937,164.47672929687502,1789.3402709960938,179.483929296875,1789.3402709960938,198.07502929687502L1789.3402709960938,332.468029296875C1789.3402709960938,351.003029296875,1804.4038709960937,366.067029296875,1822.9394709960939,366.067029296875C1841.4749709960938,366.067029296875,1856.5385709960938,381.074029296875,1856.5385709960938,399.665029296875C1856.5385709960938,418.256029296875,1871.6022709960937,433.263029296875,1890.1382709960938,433.263029296875L2024.5342709960937,433.263029296875C2043.0702709960938,433.263029296875,2058.133270996094,418.200029296875,2058.133270996094,399.665029296875C2058.133270996094,381.130029296875,2073.1972709960937,366.067029296875,2091.7322709960936,366.067029296875C2110.2682709960936,366.067029296875,2125.332270996094,351.003029296875,2125.332270996094,332.468029296875L2125.332270996094,198.07502929687502C2125.332270996094,179.483929296875,2110.2682709960936,164.47672929687502,2091.7322709960936,164.47672929687502ZM2058.133270996094,332.468029296875C2058.133270996094,351.003029296875,2043.0702709960938,366.067029296875,2024.5342709960937,366.067029296875L1890.1382709960938,366.067029296875C1871.6022709960937,366.067029296875,1856.5385709960938,351.003029296875,1856.5385709960938,332.468029296875L1856.5385709960938,198.07502929687502C1856.5385709960938,179.483929296875,1871.6022709960937,164.47672929687502,1890.1382709960938,164.47672929687502L2024.5342709960937,164.47672929687502C2043.0702709960938,164.47672929687502,2058.133270996094,179.483929296875,2058.133270996094,198.07502929687502L2058.133270996094,332.468029296875Z" fill="#FFFFFF" fill-opacity="1"/></g><g><path d="M1734.2383989257812,399.665029296875C1734.2383989257812,418.200029296875,1719.2303989257812,433.263029296875,1700.6393989257813,433.263029296875C1682.0473989257812,433.263029296875,1667.0393989257814,418.200029296875,1667.0393989257814,399.665029296875C1667.0393989257814,381.130029296875,1652.0323989257813,366.067029296875,1633.4403989257812,366.067029296875L1566.2423989257813,366.067029296875C1547.7063989257813,366.067029296875,1532.6433989257812,351.003029296875,1532.6433989257812,332.468029296875C1532.6433989257812,313.933029296875,1517.6353989257811,298.87002929687503,1499.0443989257813,298.87002929687503C1480.4522989257812,298.87002929687503,1465.4446989257813,313.877029296875,1465.4446989257813,332.468029296875L1465.4446989257813,399.665029296875C1465.4446989257813,418.200029296875,1450.4371989257813,433.263029296875,1431.8455989257814,433.263029296875C1413.2539989257812,433.263029296875,1398.2463989257812,418.200029296875,1398.2463989257812,399.665029296875L1398.2463989257812,130.878329296875C1398.2463989257812,112.287329296875,1413.3099989257812,97.280029296875,1431.8455989257814,97.280029296875C1450.3810989257813,97.280029296875,1465.4446989257813,112.287329296875,1465.4446989257813,130.878329296875L1465.4446989257813,198.07502929687502C1465.4446989257813,216.61002929687498,1480.5083989257812,231.673029296875,1499.0443989257813,231.673029296875C1517.5793989257813,231.673029296875,1532.6433989257812,216.61002929687498,1532.6433989257812,198.07502929687502C1532.6433989257812,179.53992929687502,1547.7063989257813,164.47672929687502,1566.2423989257813,164.47672929687502L1633.4403989257812,164.47672929687502C1652.0323989257813,164.47672929687502,1667.0393989257814,149.413429296875,1667.0393989257814,130.878329296875C1667.0393989257814,112.343229296875,1682.1033989257812,97.280029296875,1700.6393989257813,97.280029296875C1719.1743989257811,97.280029296875,1734.2383989257812,112.287329296875,1734.2383989257812,130.878329296875C1734.2383989257812,149.469429296875,1719.2303989257812,164.47672929687502,1700.6393989257813,164.47672929687502C1682.0473989257812,164.47672929687502,1667.0393989257814,179.483929296875,1667.0393989257814,198.07502929687502C1667.0393989257814,216.666029296875,1652.0323989257813,231.673029296875,1633.4403989257812,231.673029296875L1566.2423989257813,231.673029296875C1547.7063989257813,231.673029296875,1532.6433989257812,246.681029296875,1532.6433989257812,265.27202929687496C1532.6433989257812,283.86302929687497,1547.7063989257813,298.87002929687503,1566.2423989257813,298.87002929687503L1633.4403989257812,298.87002929687503C1652.0323989257813,298.87002929687503,1667.0393989257814,313.877029296875,1667.0393989257814,332.468029296875C1667.0393989257814,351.059029296875,1682.1033989257812,366.067029296875,1700.6393989257813,366.067029296875C1719.1743989257811,366.067029296875,1734.2383989257812,381.074029296875,1734.2383989257812,399.665029296875Z" fill="#FFFFFF" fill-opacity="1"/></g><g><path d="M1309.6013435058594,231.67323275940865C1291.0653435058593,231.67323275940865,1276.0013435058595,216.61023275940863,1276.0013435058595,198.07523275940866C1276.0013435058595,179.53993275940866,1260.9383435058594,164.47673275940866,1242.4023435058593,164.47673275940866C1223.8673435058595,164.47673275940866,1208.8033435058594,149.41343275940864,1208.8033435058594,130.87833275940864C1208.8033435058594,109.03943275940865,1187.9723435058595,92.12827275940865,1165.1803435058594,98.73594275940866C1150.7883435058593,102.93573275940865,1141.9973435058594,116.71103275940865,1141.6053435058593,131.71833275940867C1141.1573435058594,149.86143275940864,1126.2613435058593,164.47673275940866,1108.0063435058594,164.47673275940866C1089.7503435058593,164.47673275940866,1074.4066435058594,179.48393275940867,1074.4066435058594,198.07523275940866C1074.4066435058594,216.66623275940867,1059.0070435058594,232.00923275940866,1040.2475435058593,231.67323275940865C1021.4879435058593,231.33723275940866,1007.2083435058594,246.96023275940865,1007.2083435058594,265.2712327594087L1007.2083435058594,398.48923275940865C1007.2083435058594,415.56823275940866,1019.4720435058593,430.79923275940865,1036.3836435058595,432.9832327594087C1056.8791435058595,435.6152327594086,1074.4066435058594,419.6562327594087,1074.4066435058594,399.66523275940864C1074.4066435058594,381.13023275940867,1089.4703435058593,366.06623275940865,1108.0063435058594,366.06623275940865L1242.4023435058593,366.06623275940865C1260.6583435058594,366.06623275940865,1275.5533435058594,380.62623275940865,1276.0013435058595,398.82523275940866C1276.3373435058593,413.83223275940867,1285.1853435058592,427.60723275940865,1299.6333435058593,431.80723275940863C1322.4243435058593,438.41523275940864,1343.2003435058593,421.44823275940865,1343.2003435058593,399.66523275940864L1343.2003435058593,265.2712327594087C1343.2003435058593,246.68023275940865,1328.1363435058593,231.67323275940865,1309.6013435058594,231.67323275940865ZM1242.4023435058593,298.8702327594086L1108.0063435058594,298.8702327594086C1089.4703435058593,298.8702327594086,1074.4066435058594,283.80723275940863,1074.4066435058594,265.2712327594087C1074.4066435058594,246.73623275940867,1089.4703435058593,231.67323275940865,1108.0063435058594,231.67323275940865C1126.5413435058595,231.67323275940865,1141.6053435058593,216.61023275940863,1141.6053435058593,198.07523275940866C1141.6053435058593,179.53993275940866,1156.6683435058594,164.47673275940866,1175.2043435058595,164.47673275940866C1193.7393435058593,164.47673275940866,1208.8033435058594,179.48393275940867,1208.8033435058594,198.07523275940866C1208.8033435058594,216.66623275940867,1223.8673435058595,231.67323275940865,1242.4023435058593,231.67323275940865C1260.9383435058594,231.67323275940865,1276.0013435058595,246.68023275940865,1276.0013435058595,265.2712327594087C1276.0013435058595,283.86223275940864,1260.9383435058594,298.8702327594086,1242.4023435058593,298.8702327594086Z" fill="#FFFFFF" fill-opacity="1"/></g></g><g><g><g><g><path d="M235.52,0C130.895,0,46.0799,84.8151,46.0799,189.44C46.0799,241.066,67.1497,290.456,104.415,326.184Q104.064,336.814,99.9504,346.586Q95.6049,356.907,87.6775,364.856Q79.7486,372.806,69.4505,377.164Q58.7893,381.676,47.1039,381.676Q37.4962,381.676,28.7485,385.378Q20.295,388.956,13.7807,395.488Q7.26495,402.02,3.69519,410.5Q0,419.277,0,428.918Q0,438.552,3.70559,447.332Q7.28367,455.809,13.8112,462.346Q20.3335,468.878,28.7863,472.458Q37.5273,476.16,47.104,476.16Q56.6742,476.16,65.4172,472.448Q73.8679,468.859,80.3946,462.316Q86.9226,455.77,90.5027,447.294Q94.2079,438.521,94.2079,428.918Q94.2079,417.241,98.7198,406.558Q103.075,396.245,111.011,388.289Q118.948,380.331,129.237,375.963Q139.898,371.436,151.552,371.436Q161.128,371.436,169.87,367.734L169.877,367.731C170.355,367.529,170.886,367.514,171.375,367.689C171.909,367.881,172.443,368.071,172.979,368.258C177.248,369.751,178.166,375.348,174.004,377.119L173.898,377.164Q163.237,381.676,151.551,381.676Q141.944,381.676,133.196,385.378Q124.742,388.956,118.228,395.488Q111.712,402.02,108.143,410.5Q104.447,419.277,104.447,428.918Q104.447,438.552,108.153,447.332Q111.731,455.809,118.259,462.346Q124.781,468.878,133.234,472.458Q141.975,476.16,151.551,476.16Q161.122,476.16,169.865,472.448Q178.315,468.859,184.842,462.316Q191.37,455.77,194.95,447.294Q198.655,438.521,198.655,428.918Q198.655,417.241,203.167,406.558Q207.523,396.245,215.458,388.289Q218.457,385.283,221.791,382.788C225.712,379.856,230.548,378.878,235.445,378.88L276.555,378.88C281.471,378.878,286.385,379.894,290.317,382.845Q293.59,385.302,296.538,388.254Q304.477,396.205,308.832,406.522Q313.343,417.211,313.343,428.918Q313.343,438.552,317.049,447.332Q320.627,455.809,327.154,462.346Q333.677,468.878,342.129,472.458Q350.87,476.16,360.447,476.16Q370.024,476.16,378.765,472.458Q387.217,468.878,393.74,462.346Q400.267,455.809,403.845,447.332Q407.551,438.552,407.551,428.918Q407.551,419.308,403.856,410.538Q400.284,402.059,393.768,395.518Q387.25,388.975,378.798,385.389Q370.048,381.676,360.447,381.676Q348.763,381.676,338.096,377.15Q338.043,377.127,337.99,377.105C333.839,375.334,334.633,369.789,338.894,368.303C339.476,368.099,340.058,367.893,340.639,367.684C341.127,367.508,341.645,367.529,342.123,367.731L342.131,367.734Q350.872,371.436,360.449,371.436Q372.104,371.436,382.759,375.949Q393.053,380.308,400.987,388.254Q408.926,396.205,413.281,406.522Q417.792,417.211,417.792,428.918Q417.792,438.552,421.498,447.332Q425.076,455.809,431.604,462.346Q438.126,468.878,446.579,472.458Q455.32,476.16,464.896,476.16Q474.473,476.16,483.214,472.458Q491.667,468.878,498.189,462.346Q504.717,455.809,508.295,447.332Q512,438.552,512,428.918Q512,419.308,508.306,410.538Q504.734,402.059,498.218,395.518Q491.699,388.975,483.247,385.389Q474.498,381.676,464.896,381.676Q453.213,381.676,442.546,377.15Q432.252,372.782,424.321,364.821Q416.397,356.867,412.05,346.55Q407.937,336.785,407.585,326.183C444.85,290.455,465.919,241.065,465.919,189.44C465.919,84.8151,381.104,0,276.48,0L235.52,0ZM276.479,268.8Q276.479,269.365,276.452,269.93Q276.424,270.495,276.368,271.058Q276.313,271.621,276.23,272.18Q276.147,272.74,276.037,273.295Q275.926,273.849,275.789,274.398Q275.651,274.947,275.487,275.488Q275.323,276.029,275.133,276.562Q274.942,277.094,274.725,277.617Q274.509,278.139,274.267,278.651Q274.025,279.162,273.759,279.661Q273.492,280.159,273.201,280.645Q272.911,281.13,272.596,281.6Q272.282,282.07,271.945,282.525Q271.608,282.979,271.25,283.416Q270.891,283.853,270.511,284.272Q270.131,284.691,269.731,285.091Q269.331,285.491,268.912,285.871Q268.493,286.251,268.056,286.61Q267.619,286.969,267.164,287.306Q266.71,287.642,266.24,287.957Q265.769,288.271,265.284,288.562Q264.799,288.852,264.3,289.119Q263.802,289.386,263.29,289.628Q262.779,289.869,262.256,290.086Q261.734,290.302,261.201,290.493Q260.669,290.683,260.128,290.848Q259.586,291.012,259.038,291.149Q258.489,291.287,257.934,291.397Q257.38,291.507,256.82,291.59Q256.261,291.673,255.698,291.729Q255.135,291.784,254.57,291.812Q254.005,291.84,253.439,291.84Q252.874,291.84,252.309,291.812Q251.744,291.784,251.181,291.729Q250.618,291.673,250.059,291.59Q249.499,291.507,248.944,291.397Q248.39,291.287,247.841,291.149Q247.292,291.012,246.751,290.848Q246.21,290.683,245.677,290.493Q245.145,290.302,244.622,290.086Q244.1,289.869,243.589,289.628Q243.077,289.386,242.578,289.119Q242.08,288.852,241.594,288.562Q241.109,288.271,240.639,287.957Q240.169,287.642,239.714,287.306Q239.26,286.969,238.823,286.61Q238.386,286.251,237.967,285.871Q237.548,285.491,237.148,285.091Q236.748,284.691,236.368,284.272Q235.988,283.853,235.629,283.416Q235.27,282.979,234.934,282.525Q234.597,282.07,234.282,281.6Q233.968,281.13,233.677,280.645Q233.387,280.159,233.12,279.661Q232.853,279.162,232.611,278.651Q232.37,278.139,232.153,277.617Q231.937,277.094,231.746,276.562Q231.556,276.029,231.391,275.488Q231.227,274.947,231.09,274.398Q230.952,273.849,230.842,273.295Q230.732,272.74,230.649,272.18Q230.566,271.621,230.51,271.058Q230.455,270.495,230.427,269.93Q230.399,269.365,230.399,268.8Q230.399,268.234,230.427,267.669Q230.455,267.104,230.51,266.541Q230.566,265.978,230.649,265.419Q230.732,264.86,230.842,264.305Q230.952,263.75,231.09,263.201Q231.227,262.653,231.392,262.112Q231.556,261.57,231.746,261.038Q231.937,260.505,232.153,259.983Q232.37,259.46,232.611,258.949Q232.853,258.438,233.12,257.939Q233.387,257.44,233.677,256.955Q233.968,256.47,234.282,255.999Q234.597,255.529,234.934,255.075Q235.27,254.62,235.629,254.183Q235.988,253.746,236.368,253.327Q236.748,252.908,237.148,252.508Q237.548,252.108,237.967,251.728Q238.386,251.348,238.823,250.99Q239.26,250.631,239.714,250.294Q240.169,249.957,240.639,249.643Q241.109,249.328,241.594,249.038Q242.08,248.747,242.578,248.48Q243.077,248.214,243.589,247.972Q244.1,247.73,244.622,247.514Q245.145,247.297,245.677,247.107Q246.21,246.916,246.751,246.752Q247.292,246.588,247.841,246.45Q248.39,246.313,248.945,246.202Q249.499,246.092,250.059,246.009Q250.618,245.926,251.181,245.871Q251.744,245.815,252.309,245.787Q252.874,245.76,253.439,245.76Q254.005,245.76,254.57,245.787Q255.135,245.815,255.698,245.871Q256.261,245.926,256.82,246.009Q257.379,246.092,257.934,246.202Q258.489,246.313,259.038,246.45Q259.586,246.588,260.128,246.752Q260.669,246.916,261.201,247.107Q261.734,247.297,262.256,247.514Q262.779,247.73,263.29,247.972Q263.802,248.214,264.3,248.48Q264.799,248.747,265.284,249.038Q265.769,249.328,266.24,249.643Q266.71,249.957,267.164,250.294Q267.619,250.631,268.056,250.99Q268.493,251.348,268.912,251.728Q269.331,252.108,269.731,252.508Q270.131,252.908,270.511,253.327Q270.891,253.746,271.25,254.183Q271.608,254.62,271.945,255.075Q272.282,255.529,272.596,255.999Q272.911,256.47,273.201,256.955Q273.492,257.44,273.759,257.939Q274.025,258.438,274.267,258.949Q274.509,259.46,274.725,259.983Q274.942,260.505,275.133,261.038Q275.323,261.57,275.487,262.112Q275.651,262.653,275.789,263.201Q275.926,263.75,276.037,264.305Q276.147,264.86,276.23,265.419Q276.313,265.978,276.368,266.541Q276.424,267.104,276.452,267.669Q276.479,268.234,276.479,268.8ZM360.959,291.84Q361.524,291.84,362.089,291.812Q362.654,291.784,363.217,291.729Q363.78,291.673,364.34,291.59Q364.899,291.507,365.454,291.397Q366.009,291.287,366.557,291.149Q367.106,291.012,367.647,290.848Q368.188,290.683,368.721,290.493Q369.253,290.302,369.776,290.086Q370.298,289.869,370.81,289.628Q371.321,289.386,371.82,289.119Q372.319,288.852,372.804,288.562Q373.289,288.271,373.759,287.957Q374.229,287.642,374.684,287.306Q375.138,286.969,375.575,286.61Q376.012,286.251,376.432,285.871Q376.851,285.491,377.251,285.091Q377.651,284.691,378.03,284.272Q378.41,283.853,378.769,283.416Q379.128,282.979,379.465,282.525Q379.802,282.07,380.116,281.6Q380.43,281.13,380.721,280.645Q381.012,280.159,381.278,279.661Q381.545,279.162,381.787,278.651Q382.029,278.139,382.245,277.617Q382.461,277.094,382.652,276.562Q382.843,276.029,383.007,275.488Q383.171,274.947,383.308,274.398Q383.446,273.849,383.556,273.295Q383.666,272.74,383.749,272.18Q383.832,271.621,383.888,271.058Q383.943,270.495,383.971,269.93Q383.999,269.365,383.999,268.8Q383.999,268.234,383.971,267.669Q383.943,267.104,383.888,266.541Q383.833,265.978,383.75,265.419Q383.667,264.86,383.556,264.305Q383.446,263.75,383.308,263.201Q383.171,262.653,383.007,262.112Q382.843,261.57,382.652,261.038Q382.461,260.505,382.245,259.983Q382.029,259.46,381.787,258.949Q381.545,258.438,381.278,257.939Q381.012,257.44,380.721,256.955Q380.43,256.47,380.116,255.999Q379.802,255.529,379.465,255.075Q379.128,254.62,378.769,254.183Q378.41,253.746,378.03,253.327Q377.651,252.908,377.251,252.508Q376.851,252.108,376.432,251.728Q376.012,251.348,375.575,250.99Q375.138,250.631,374.684,250.294Q374.229,249.957,373.759,249.643Q373.289,249.328,372.804,249.038Q372.319,248.747,371.82,248.48Q371.321,248.214,370.81,247.972Q370.298,247.73,369.776,247.514Q369.253,247.297,368.721,247.107Q368.188,246.916,367.647,246.752Q367.106,246.588,366.557,246.45Q366.009,246.313,365.454,246.202Q364.899,246.092,364.34,246.009Q363.78,245.926,363.217,245.871Q362.654,245.815,362.089,245.787Q361.524,245.76,360.959,245.76Q360.393,245.76,359.828,245.787Q359.263,245.815,358.701,245.871Q358.138,245.926,357.578,246.009Q357.019,246.092,356.464,246.202Q355.909,246.313,355.361,246.45Q354.812,246.588,354.271,246.752Q353.729,246.916,353.197,247.107Q352.664,247.297,352.142,247.514Q351.619,247.73,351.108,247.972Q350.597,248.214,350.098,248.48Q349.599,248.747,349.114,249.038Q348.629,249.328,348.159,249.643Q347.688,249.957,347.234,250.294Q346.78,250.631,346.342,250.99Q345.905,251.348,345.486,251.728Q345.067,252.108,344.667,252.508Q344.267,252.908,343.887,253.327Q343.508,253.746,343.149,254.183Q342.79,254.62,342.453,255.075Q342.116,255.529,341.802,255.999Q341.488,256.47,341.197,256.955Q340.906,257.44,340.639,257.939Q340.373,258.438,340.131,258.949Q339.889,259.46,339.673,259.983Q339.456,260.505,339.266,261.038Q339.075,261.57,338.911,262.112Q338.747,262.653,338.609,263.201Q338.472,263.75,338.362,264.305Q338.251,264.86,338.168,265.419Q338.085,265.978,338.03,266.541Q337.974,267.104,337.947,267.669Q337.919,268.234,337.919,268.8Q337.919,269.365,337.947,269.93Q337.974,270.495,338.03,271.058Q338.085,271.621,338.168,272.18Q338.251,272.74,338.362,273.295Q338.472,273.849,338.609,274.398Q338.747,274.947,338.911,275.488Q339.075,276.029,339.266,276.562Q339.456,277.094,339.673,277.617Q339.889,278.139,340.131,278.651Q340.373,279.162,340.639,279.661Q340.906,280.159,341.197,280.645Q341.488,281.13,341.802,281.6Q342.116,282.07,342.453,282.525Q342.79,282.979,343.149,283.416Q343.508,283.853,343.887,284.272Q344.267,284.691,344.667,285.091Q345.067,285.491,345.486,285.871Q345.905,286.251,346.342,286.61Q346.78,286.969,347.234,287.306Q347.688,287.642,348.159,287.957Q348.629,288.271,349.114,288.562Q349.599,288.852,350.098,289.119Q350.597,289.386,351.108,289.628Q351.619,289.869,352.142,290.086Q352.664,290.302,353.197,290.493Q353.729,290.683,354.271,290.848Q354.812,291.012,355.361,291.149Q355.909,291.287,356.464,291.397Q357.019,291.507,357.578,291.59Q358.138,291.673,358.701,291.729Q359.263,291.784,359.828,291.812Q360.393,291.84,360.959,291.84ZM303.103,428.918Q303.103,419.904,299.794,411.524Q296.201,402.426,289.301,395.508Q282.403,388.591,273.333,384.991Q264.981,381.676,255.999,381.676Q247.016,381.676,238.664,384.991Q229.594,388.591,222.696,395.508Q215.796,402.426,212.204,411.524Q208.895,419.904,208.895,428.918Q208.895,437.931,212.204,446.311Q215.796,455.409,222.696,462.327Q229.594,469.244,238.664,472.845Q247.016,476.16,255.999,476.16Q264.981,476.16,273.333,472.845Q282.403,469.244,289.301,462.327Q296.201,455.409,299.794,446.311Q303.103,437.931,303.103,428.918Z" fill-rule="evenodd" fill="#FFFFFF" fill-opacity="1"/></g></g></g></g></g></svg>