<svg xmlns="http://www.w3.org/2000/svg" xmlns:xlink="http://www.w3.org/1999/xlink" fill="none" version="1.1" width="2145.33203125" height="476.1605224609375" viewBox="0 0 2145.33203125 476.1605224609375"><g><g><g><path d="M1027.2087358398437,130.87829114990234C1027.2087358398437,149.41339114990234,1012.1447358398437,164.47669114990236,993.6097358398438,164.47669114990236L859.2127358398437,164.47669114990236C840.6767358398438,164.47669114990236,825.6137358398437,179.48389114990235,825.6137358398437,198.07499114990236C825.6137358398437,216.66599114990234,840.6767358398438,231.67299114990234,859.2127358398437,231.67299114990234C877.7477358398437,231.67299114990234,892.8117358398438,246.68099114990235,892.8117358398438,265.2719911499023L892.8117358398438,399.66499114990233C892.8117358398438,418.19999114990236,877.7477358398437,433.26299114990235,859.2127358398437,433.26299114990235C840.6767358398438,433.26299114990235,825.6137358398437,418.19999114990236,825.6137358398437,399.66499114990233L825.6137358398437,265.2719911499023C825.6137358398437,246.68099114990235,810.5497358398437,231.67299114990234,792.0147358398438,231.67299114990234C773.4787358398437,231.67299114990234,758.4150358398438,216.60999114990233,758.4150358398438,198.07499114990236C758.4150358398438,179.53989114990236,743.3514358398437,164.47669114990236,724.8159358398437,164.47669114990236C706.2803358398437,164.47669114990236,691.2167358398438,149.41339114990234,691.2167358398438,130.87829114990234C691.2167358398438,112.34319114990234,706.2803358398437,97.27999114990234,724.8159358398437,97.27999114990234L993.6097358398438,97.27999114990234C1012.1447358398437,97.27999114990234,1027.2087358398437,112.28729114990234,1027.2087358398437,130.87829114990234Z" fill="#00DEB5" fill-opacity="1"/></g><g><path d="M2111.7322709960936,164.47669114990236C2093.1972709960937,164.47669114990236,2078.133270996094,149.41339114990234,2078.133270996094,130.87829114990234C2078.133270996094,112.34319114990234,2063.0702709960938,97.27999114990234,2044.5342709960937,97.27999114990234L1910.1382709960938,97.27999114990234C1891.6022709960937,97.27999114990234,1876.5385709960938,112.28729114990234,1876.5385709960938,130.87829114990234C1876.5385709960938,149.46939114990235,1861.4749709960938,164.47669114990236,1842.9394709960939,164.47669114990236C1824.4038709960937,164.47669114990236,1809.3402709960938,179.48389114990235,1809.3402709960938,198.07499114990236L1809.3402709960938,332.46799114990233C1809.3402709960938,351.00299114990236,1824.4038709960937,366.0669911499023,1842.9394709960939,366.0669911499023C1861.4749709960938,366.0669911499023,1876.5385709960938,381.0739911499023,1876.5385709960938,399.66499114990233C1876.5385709960938,418.25599114990234,1891.6022709960937,433.26299114990235,1910.1382709960938,433.26299114990235L2044.5342709960937,433.26299114990235C2063.0702709960938,433.26299114990235,2078.133270996094,418.19999114990236,2078.133270996094,399.66499114990233C2078.133270996094,381.12999114990237,2093.1972709960937,366.0669911499023,2111.7322709960936,366.0669911499023C2130.2682709960936,366.0669911499023,2145.332270996094,351.00299114990236,2145.332270996094,332.46799114990233L2145.332270996094,198.07499114990236C2145.332270996094,179.48389114990235,2130.2682709960936,164.47669114990236,2111.7322709960936,164.47669114990236ZM2078.133270996094,332.46799114990233C2078.133270996094,351.00299114990236,2063.0702709960938,366.0669911499023,2044.5342709960937,366.0669911499023L1910.1382709960938,366.0669911499023C1891.6022709960937,366.0669911499023,1876.5385709960938,351.00299114990236,1876.5385709960938,332.46799114990233L1876.5385709960938,198.07499114990236C1876.5385709960938,179.48389114990235,1891.6022709960937,164.47669114990236,1910.1382709960938,164.47669114990236L2044.5342709960937,164.47669114990236C2063.0702709960938,164.47669114990236,2078.133270996094,179.48389114990235,2078.133270996094,198.07499114990236L2078.133270996094,332.46799114990233Z" fill="#00DEB5" fill-opacity="1"/></g><g><path d="M1754.2383989257812,399.66499114990233C1754.2383989257812,418.19999114990236,1739.2303989257812,433.26299114990235,1720.6393989257813,433.26299114990235C1702.0473989257812,433.26299114990235,1687.0393989257814,418.19999114990236,1687.0393989257814,399.66499114990233C1687.0393989257814,381.12999114990237,1672.0323989257813,366.0669911499023,1653.4403989257812,366.0669911499023L1586.2423989257813,366.0669911499023C1567.7063989257813,366.0669911499023,1552.6433989257812,351.00299114990236,1552.6433989257812,332.46799114990233C1552.6433989257812,313.93299114990236,1537.6353989257811,298.8699911499024,1519.0443989257813,298.8699911499024C1500.4522989257812,298.8699911499024,1485.4446989257813,313.8769911499023,1485.4446989257813,332.46799114990233L1485.4446989257813,399.66499114990233C1485.4446989257813,418.19999114990236,1470.4371989257813,433.26299114990235,1451.8455989257814,433.26299114990235C1433.2539989257812,433.26299114990235,1418.2463989257812,418.19999114990236,1418.2463989257812,399.66499114990233L1418.2463989257812,130.87829114990234C1418.2463989257812,112.28729114990234,1433.3099989257812,97.27999114990234,1451.8455989257814,97.27999114990234C1470.3810989257813,97.27999114990234,1485.4446989257813,112.28729114990234,1485.4446989257813,130.87829114990234L1485.4446989257813,198.07499114990236C1485.4446989257813,216.60999114990233,1500.5083989257812,231.67299114990234,1519.0443989257813,231.67299114990234C1537.5793989257813,231.67299114990234,1552.6433989257812,216.60999114990233,1552.6433989257812,198.07499114990236C1552.6433989257812,179.53989114990236,1567.7063989257813,164.47669114990236,1586.2423989257813,164.47669114990236L1653.4403989257812,164.47669114990236C1672.0323989257813,164.47669114990236,1687.0393989257814,149.41339114990234,1687.0393989257814,130.87829114990234C1687.0393989257814,112.34319114990234,1702.1033989257812,97.27999114990234,1720.6393989257813,97.27999114990234C1739.1743989257811,97.27999114990234,1754.2383989257812,112.28729114990234,1754.2383989257812,130.87829114990234C1754.2383989257812,149.46939114990235,1739.2303989257812,164.47669114990236,1720.6393989257813,164.47669114990236C1702.0473989257812,164.47669114990236,1687.0393989257814,179.48389114990235,1687.0393989257814,198.07499114990236C1687.0393989257814,216.66599114990234,1672.0323989257813,231.67299114990234,1653.4403989257812,231.67299114990234L1586.2423989257813,231.67299114990234C1567.7063989257813,231.67299114990234,1552.6433989257812,246.68099114990235,1552.6433989257812,265.2719911499023C1552.6433989257812,283.8629911499023,1567.7063989257813,298.8699911499024,1586.2423989257813,298.8699911499024L1653.4403989257812,298.8699911499024C1672.0323989257813,298.8699911499024,1687.0393989257814,313.8769911499023,1687.0393989257814,332.46799114990233C1687.0393989257814,351.05899114990234,1702.1033989257812,366.0669911499023,1720.6393989257813,366.0669911499023C1739.1743989257811,366.0669911499023,1754.2383989257812,381.0739911499023,1754.2383989257812,399.66499114990233Z" fill="#00DEB5" fill-opacity="1"/></g><g><path d="M1329.6013435058594,231.673194612436C1311.0653435058593,231.673194612436,1296.0013435058595,216.61019461243598,1296.0013435058595,198.075194612436C1296.0013435058595,179.539894612436,1280.9383435058594,164.476694612436,1262.4023435058593,164.476694612436C1243.8673435058595,164.476694612436,1228.8033435058594,149.41339461243598,1228.8033435058594,130.87829461243598C1228.8033435058594,109.039394612436,1207.9723435058595,92.12823461243599,1185.1803435058594,98.735904612436C1170.7883435058593,102.935694612436,1161.9973435058594,116.710994612436,1161.6053435058593,131.718294612436C1161.1573435058594,149.861394612436,1146.2613435058593,164.476694612436,1128.0063435058594,164.476694612436C1109.7503435058593,164.476694612436,1094.4066435058594,179.48389461243602,1094.4066435058594,198.075194612436C1094.4066435058594,216.66619461243602,1079.0070435058594,232.009194612436,1060.2475435058593,231.673194612436C1041.4879435058594,231.337194612436,1027.2083435058594,246.960194612436,1027.2083435058594,265.27119461243603L1027.2083435058594,398.489194612436C1027.2083435058594,415.568194612436,1039.4720435058593,430.799194612436,1056.3836435058595,432.983194612436C1076.8791435058595,435.61519461243597,1094.4066435058594,419.656194612436,1094.4066435058594,399.665194612436C1094.4066435058594,381.130194612436,1109.4703435058593,366.066194612436,1128.0063435058594,366.066194612436L1262.4023435058593,366.066194612436C1280.6583435058594,366.066194612436,1295.5533435058594,380.626194612436,1296.0013435058595,398.825194612436C1296.3373435058593,413.832194612436,1305.1853435058592,427.607194612436,1319.6333435058593,431.807194612436C1342.4243435058593,438.415194612436,1363.2003435058593,421.448194612436,1363.2003435058593,399.665194612436L1363.2003435058593,265.27119461243603C1363.2003435058593,246.680194612436,1348.1363435058593,231.673194612436,1329.6013435058594,231.673194612436ZM1262.4023435058593,298.87019461243597L1128.0063435058594,298.87019461243597C1109.4703435058593,298.87019461243597,1094.4066435058594,283.807194612436,1094.4066435058594,265.27119461243603C1094.4066435058594,246.736194612436,1109.4703435058593,231.673194612436,1128.0063435058594,231.673194612436C1146.5413435058595,231.673194612436,1161.6053435058593,216.61019461243598,1161.6053435058593,198.075194612436C1161.6053435058593,179.539894612436,1176.6683435058594,164.476694612436,1195.2043435058595,164.476694612436C1213.7393435058593,164.476694612436,1228.8033435058594,179.48389461243602,1228.8033435058594,198.075194612436C1228.8033435058594,216.66619461243602,1243.8673435058595,231.673194612436,1262.4023435058593,231.673194612436C1280.9383435058594,231.673194612436,1296.0013435058595,246.680194612436,1296.0013435058595,265.27119461243603C1296.0013435058595,283.862194612436,1280.9383435058594,298.87019461243597,1262.4023435058593,298.87019461243597Z" fill="#00DEB5" fill-opacity="1"/></g></g><g><g><path d="M235.526,0C130.898,0,46.0811,84.8152,46.0811,189.44C46.0811,241.066,67.1514,290.456,104.418,326.185Q104.067,336.814,99.953,346.586Q95.6074,356.908,87.6798,364.856Q79.7507,372.806,69.4522,377.164Q58.7909,381.677,47.1052,381.677Q37.4972,381.677,28.7492,385.379Q20.2955,388.957,13.781,395.488Q7.26514,402.021,3.69528,410.5Q0,419.278,0,428.918Q0,438.553,3.70569,447.332Q7.28386,455.81,13.8116,462.347Q20.3341,468.879,28.787,472.459Q37.5282,476.16,47.1052,476.16Q56.6757,476.16,65.4189,472.448Q73.8698,468.86,80.3967,462.316Q86.9249,455.771,90.5051,447.294Q94.2103,438.522,94.2103,428.918Q94.2103,417.241,98.7224,406.558Q103.078,396.246,111.014,388.289Q118.951,380.332,129.24,375.963Q139.901,371.437,151.556,371.437Q161.133,371.437,169.874,367.735Q169.878,367.733,169.881,367.732C170.359,367.529,170.891,367.514,171.379,367.69C171.913,367.882,172.448,368.071,172.983,368.259C177.253,369.752,178.17,375.349,174.009,377.119Q173.956,377.142,173.902,377.164Q163.241,381.677,151.555,381.677Q141.947,381.677,133.199,385.379Q124.746,388.957,118.231,395.488Q111.715,402.021,108.145,410.5Q104.45,419.278,104.45,428.918Q104.45,438.553,108.156,447.332Q111.734,455.81,118.262,462.347Q124.784,468.879,133.237,472.459Q141.978,476.16,151.555,476.16Q161.126,476.16,169.869,472.448Q178.32,468.86,184.847,462.316Q191.375,455.771,194.955,447.294Q198.66,438.522,198.66,428.918Q198.66,417.241,203.172,406.558Q207.528,396.246,215.464,388.289Q218.462,385.283,221.796,382.789C225.717,379.856,230.554,378.878,235.451,378.88L276.562,378.88C281.478,378.878,286.392,379.894,290.324,382.845Q293.598,385.302,296.546,388.255Q304.485,396.205,308.84,406.523Q313.351,417.212,313.351,428.918Q313.351,438.553,317.057,447.332Q320.635,455.81,327.163,462.347Q333.685,468.879,342.138,472.459Q350.879,476.16,360.456,476.16Q370.033,476.16,378.774,472.459Q387.227,468.879,393.75,462.347Q400.278,455.81,403.856,447.332Q407.562,438.553,407.562,428.918Q407.562,419.309,403.867,410.538Q400.295,402.06,393.779,395.519Q387.26,388.975,378.808,385.389Q370.058,381.677,360.456,381.677Q348.772,381.677,338.105,377.15L337.999,377.105C333.848,375.335,334.641,369.79,338.902,368.303C339.485,368.1,340.067,367.894,340.648,367.685C341.136,367.509,341.654,367.529,342.132,367.732Q342.136,367.733,342.14,367.735Q350.881,371.437,360.458,371.437Q372.114,371.437,382.769,375.949Q393.063,380.308,400.998,388.255Q408.937,396.205,413.292,406.523Q417.803,417.212,417.803,428.918Q417.803,438.553,421.509,447.332Q425.087,455.81,431.615,462.347Q438.137,468.879,446.59,472.459Q455.331,476.16,464.908,476.16Q474.485,476.16,483.227,472.459Q491.679,468.879,498.202,462.347Q504.73,455.81,508.308,447.332Q512.014,438.553,512.014,428.918Q512.014,419.309,508.319,410.538Q504.747,402.06,498.23,395.519Q491.712,388.975,483.26,385.389Q474.51,381.677,464.908,381.677Q453.224,381.677,442.557,377.15Q432.263,372.783,424.332,364.821Q416.407,356.867,412.061,346.55Q407.947,336.786,407.596,326.184C444.862,290.455,465.931,241.066,465.931,189.44C465.931,84.8152,381.114,0,276.487,0L235.526,0ZM276.486,268.8Q276.486,269.366,276.459,269.931Q276.431,270.495,276.375,271.058Q276.32,271.621,276.237,272.181Q276.154,272.74,276.044,273.295Q275.933,273.85,275.796,274.398Q275.658,274.947,275.494,275.488Q275.33,276.029,275.14,276.562Q274.949,277.094,274.732,277.617Q274.516,278.14,274.274,278.651Q274.032,279.162,273.766,279.661Q273.499,280.16,273.208,280.645Q272.918,281.13,272.603,281.6Q272.289,282.071,271.952,282.525Q271.615,282.979,271.256,283.416Q270.898,283.854,270.518,284.273Q270.138,284.692,269.738,285.092Q269.338,285.492,268.919,285.872Q268.5,286.251,268.063,286.61Q267.625,286.969,267.171,287.306Q266.717,287.643,266.246,287.957Q265.776,288.271,265.291,288.562Q264.806,288.853,264.307,289.119Q263.808,289.386,263.297,289.628Q262.786,289.87,262.263,290.086Q261.741,290.303,261.208,290.493Q260.675,290.684,260.134,290.848Q259.593,291.012,259.044,291.15Q258.496,291.287,257.941,291.397Q257.386,291.508,256.827,291.591Q256.267,291.674,255.704,291.729Q255.141,291.784,254.576,291.812Q254.011,291.84,253.446,291.84Q252.88,291.84,252.315,291.812Q251.75,291.784,251.187,291.729Q250.625,291.674,250.065,291.591Q249.506,291.508,248.951,291.397Q248.396,291.287,247.847,291.15Q247.299,291.012,246.757,290.848Q246.216,290.684,245.684,290.493Q245.151,290.303,244.629,290.086Q244.106,289.87,243.595,289.628Q243.083,289.386,242.585,289.119Q242.086,288.853,241.601,288.562Q241.115,288.271,240.645,287.957Q240.175,287.643,239.721,287.306Q239.266,286.969,238.829,286.61Q238.392,286.251,237.973,285.871Q237.554,285.492,237.154,285.092Q236.754,284.692,236.374,284.273Q235.994,283.854,235.635,283.416Q235.276,282.979,234.939,282.525Q234.603,282.071,234.288,281.6Q233.974,281.13,233.683,280.645Q233.392,280.16,233.126,279.661Q232.859,279.162,232.617,278.651Q232.376,278.14,232.159,277.617Q231.943,277.094,231.752,276.562Q231.562,276.029,231.397,275.488Q231.233,274.947,231.096,274.398Q230.958,273.85,230.848,273.295Q230.738,272.74,230.655,272.181Q230.572,271.621,230.516,271.058Q230.461,270.495,230.433,269.931Q230.405,269.366,230.405,268.8Q230.405,268.234,230.433,267.669Q230.461,267.105,230.516,266.542Q230.572,265.979,230.655,265.419Q230.738,264.86,230.848,264.305Q230.958,263.75,231.096,263.202Q231.233,262.653,231.397,262.112Q231.562,261.571,231.752,261.038Q231.943,260.506,232.159,259.983Q232.376,259.46,232.617,258.949Q232.859,258.438,233.126,257.939Q233.392,257.44,233.683,256.955Q233.974,256.47,234.288,256Q234.603,255.529,234.939,255.075Q235.276,254.621,235.635,254.184Q235.994,253.746,236.374,253.327Q236.754,252.908,237.154,252.508Q237.554,252.108,237.973,251.729Q238.392,251.349,238.829,250.99Q239.266,250.631,239.721,250.294Q240.175,249.957,240.645,249.643Q241.115,249.329,241.601,249.038Q242.086,248.747,242.585,248.481Q243.083,248.214,243.595,247.972Q244.106,247.73,244.629,247.514Q245.151,247.297,245.684,247.107Q246.216,246.916,246.757,246.752Q247.299,246.588,247.847,246.45Q248.396,246.313,248.951,246.203Q249.506,246.092,250.065,246.009Q250.625,245.926,251.187,245.871Q251.75,245.816,252.315,245.788Q252.88,245.76,253.446,245.76Q254.011,245.76,254.576,245.788Q255.141,245.816,255.704,245.871Q256.267,245.926,256.827,246.009Q257.386,246.092,257.941,246.203Q258.496,246.313,259.044,246.451Q259.593,246.588,260.134,246.752Q260.675,246.916,261.208,247.107Q261.741,247.297,262.263,247.514Q262.786,247.73,263.297,247.972Q263.808,248.214,264.307,248.481Q264.806,248.747,265.291,249.038Q265.776,249.329,266.246,249.643Q266.717,249.957,267.171,250.294Q267.625,250.631,268.063,250.99Q268.5,251.349,268.919,251.729Q269.338,252.108,269.738,252.508Q270.138,252.908,270.518,253.327Q270.898,253.746,271.256,254.184Q271.615,254.621,271.952,255.075Q272.289,255.529,272.603,256Q272.918,256.47,273.208,256.955Q273.499,257.44,273.766,257.939Q274.032,258.438,274.274,258.949Q274.516,259.46,274.732,259.983Q274.949,260.506,275.139,261.038Q275.33,261.571,275.494,262.112Q275.658,262.653,275.796,263.202Q275.933,263.75,276.044,264.305Q276.154,264.86,276.237,265.419Q276.32,265.979,276.375,266.542Q276.431,267.105,276.459,267.669Q276.486,268.234,276.486,268.8ZM360.968,291.84Q361.534,291.84,362.099,291.812Q362.664,291.784,363.227,291.729Q363.79,291.674,364.349,291.591Q364.909,291.508,365.463,291.397Q366.018,291.287,366.567,291.15Q367.115,291.012,367.657,290.848Q368.198,290.684,368.73,290.493Q369.263,290.303,369.785,290.086Q370.308,289.87,370.819,289.628Q371.331,289.386,371.83,289.119Q372.328,288.853,372.813,288.562Q373.299,288.271,373.769,287.957Q374.239,287.643,374.693,287.306Q375.148,286.969,375.585,286.61Q376.022,286.251,376.441,285.871Q376.86,285.492,377.26,285.092Q377.66,284.692,378.04,284.273Q378.42,283.854,378.779,283.416Q379.138,282.979,379.475,282.525Q379.811,282.071,380.126,281.6Q380.44,281.13,380.731,280.645Q381.022,280.16,381.288,279.661Q381.555,279.162,381.797,278.651Q382.038,278.14,382.255,277.617Q382.471,277.094,382.662,276.562Q382.852,276.029,383.017,275.488Q383.181,274.947,383.318,274.398Q383.456,273.85,383.566,273.295Q383.676,272.74,383.759,272.181Q383.842,271.621,383.898,271.058Q383.953,270.495,383.981,269.931Q384.009,269.366,384.009,268.8Q384.009,268.234,383.981,267.669Q383.953,267.105,383.898,266.542Q383.842,265.979,383.759,265.419Q383.676,264.86,383.566,264.305Q383.456,263.75,383.318,263.202Q383.181,262.653,383.017,262.112Q382.852,261.571,382.662,261.038Q382.471,260.506,382.255,259.983Q382.038,259.46,381.797,258.949Q381.555,258.438,381.288,257.939Q381.022,257.44,380.731,256.955Q380.44,256.47,380.126,256Q379.811,255.529,379.475,255.075Q379.138,254.621,378.779,254.184Q378.42,253.746,378.04,253.327Q377.66,252.908,377.26,252.508Q376.86,252.108,376.441,251.729Q376.022,251.349,375.585,250.99Q375.148,250.631,374.693,250.294Q374.239,249.957,373.769,249.643Q373.299,249.329,372.813,249.038Q372.328,248.747,371.83,248.481Q371.331,248.214,370.819,247.972Q370.308,247.73,369.785,247.514Q369.263,247.297,368.73,247.107Q368.198,246.916,367.657,246.752Q367.115,246.588,366.567,246.45Q366.018,246.313,365.463,246.203Q364.908,246.092,364.349,246.009Q363.79,245.926,363.227,245.871Q362.664,245.816,362.099,245.788Q361.534,245.76,360.968,245.76Q360.403,245.76,359.838,245.788Q359.273,245.816,358.71,245.871Q358.147,245.926,357.588,246.009Q357.028,246.092,356.473,246.203Q355.919,246.313,355.37,246.451Q354.821,246.588,354.28,246.752Q353.739,246.916,353.206,247.107Q352.674,247.297,352.151,247.514Q351.628,247.73,351.117,247.972Q350.606,248.214,350.107,248.481Q349.608,248.747,349.123,249.038Q348.638,249.329,348.168,249.643Q347.697,249.957,347.243,250.294Q346.789,250.631,346.352,250.99Q345.914,251.349,345.495,251.729Q345.076,252.108,344.676,252.508Q344.276,252.908,343.896,253.327Q343.516,253.746,343.158,254.184Q342.799,254.621,342.462,255.075Q342.125,255.529,341.811,256Q341.496,256.47,341.206,256.955Q340.915,257.44,340.648,257.939Q340.382,258.438,340.14,258.949Q339.898,259.46,339.682,259.983Q339.465,260.506,339.275,261.038Q339.084,261.571,338.92,262.112Q338.756,262.653,338.618,263.202Q338.481,263.75,338.37,264.305Q338.26,264.86,338.177,265.419Q338.094,265.979,338.039,266.542Q337.983,267.105,337.955,267.669Q337.928,268.234,337.928,268.8Q337.928,269.366,337.955,269.931Q337.983,270.495,338.039,271.058Q338.094,271.621,338.177,272.181Q338.26,272.74,338.37,273.295Q338.481,273.85,338.618,274.398Q338.756,274.947,338.92,275.488Q339.084,276.029,339.275,276.562Q339.465,277.094,339.682,277.617Q339.898,278.14,340.14,278.651Q340.382,279.162,340.648,279.661Q340.915,280.16,341.206,280.645Q341.496,281.13,341.811,281.6Q342.125,282.071,342.462,282.525Q342.799,282.979,343.158,283.416Q343.516,283.854,343.896,284.273Q344.276,284.692,344.676,285.092Q345.076,285.492,345.495,285.872Q345.914,286.251,346.352,286.61Q346.789,286.969,347.243,287.306Q347.697,287.643,348.168,287.957Q348.638,288.271,349.123,288.562Q349.608,288.853,350.107,289.119Q350.606,289.386,351.117,289.628Q351.628,289.87,352.151,290.086Q352.674,290.303,353.206,290.493Q353.739,290.684,354.28,290.848Q354.821,291.012,355.37,291.15Q355.919,291.287,356.473,291.397Q357.028,291.508,357.588,291.591Q358.147,291.674,358.71,291.729Q359.273,291.784,359.838,291.812Q360.403,291.84,360.968,291.84ZM303.11,428.918Q303.11,419.905,299.801,411.525Q296.209,402.427,289.309,395.508Q282.41,388.592,273.34,384.992Q264.988,381.676,256.005,381.676Q247.023,381.676,238.67,384.992Q229.6,388.592,222.702,395.508Q215.801,402.427,212.209,411.525Q208.9,419.905,208.9,428.918Q208.9,437.932,212.209,446.312Q215.801,455.41,222.702,462.328Q229.6,469.245,238.67,472.845Q247.023,476.16,256.005,476.16Q264.988,476.16,273.34,472.845Q282.41,469.245,289.309,462.328Q296.209,455.41,299.801,446.312Q303.11,437.932,303.11,428.918Z" fill-rule="evenodd" fill="#00DEB5" fill-opacity="1"/></g></g></g></svg>